<svg viewBox="0 0 600 300" xmlns="http://www.w3.org/2000/svg" fill-rule="evenodd" clip-rule="evenodd" stroke-linejoin="round" stroke-miterlimit="2"><path d="M32.948 237.794c1.65-4.05 2.7-7.95 3.45-11.7.6-3.6.9-7.65.9-12.3v-38.25c0-4.35-.3-8.4-.75-11.85-.6-3.45-1.5-7.2-2.85-11.25h25.8c-.6 3.45-.9 7.05-.9 11.1v6l13.35-15.75c3.3-1.8 7.5-2.7 12.6-2.7 7.35 0 13.35 2.25 18 6.9s6.9 11.4 6.9 20.55v35.25c0 4.65.3 8.7 1.05 12.3.6 3.75 1.65 7.65 3.3 11.7h-30.15c1.65-4.05 2.7-7.95 3.45-11.55.75-3.6 1.05-7.8 1.05-12.45v-30c0-4.2-1.35-7.5-4.05-10.05-2.7-2.4-6.3-3.6-10.8-3.6-2.55 0-4.95.3-7.2 1.05s-4.8 1.8-7.5 3.45v39.15c0 4.65.3 8.7 1.05 12.3.6 3.75 1.65 7.65 3.3 11.7h-30zM145.448 238.994c-5.7 0-10.5-1.35-14.25-4.05-3.9-2.7-6.75-6.45-8.55-11.4v-47.25c0-4.65-.3-8.7-.9-12.3-.75-3.6-1.8-7.5-3.45-11.55h30.15c-1.65 4.05-2.7 7.8-3.45 11.4-.75 3.6-1.05 7.8-1.05 12.45v28.2c0 5.4 1.05 9.3 3.3 11.7 2.25 2.55 5.55 3.75 10.2 3.75 2.4 0 4.8-.3 7.05-.9 2.25-.6 4.95-1.65 7.8-3.15v-39.6c0-4.65-.3-8.7-.9-12.3-.75-3.6-1.8-7.5-3.45-11.55h30c-1.65 4.05-2.7 7.95-3.3 11.55-.75 3.6-1.05 7.65-1.05 12.3v37.5c0 4.65.3 8.7 1.05 12.3.6 3.75 1.65 7.65 3.3 11.7h-26.85c.75-3.45 1.2-9.15 1.2-16.95l-11.55 15c-4.35 2.1-9.45 3.15-15.3 3.15zM230.498 213.794c0 4.65.3 8.7 1.05 12.3.6 3.75 1.65 7.65 3.3 11.7h-30c1.65-4.05 2.7-7.95 3.45-11.7.6-3.6.9-7.65.9-12.3v-126.9c0-6.75-.3-12-1.05-16.05-.75-4.05-1.8-7.8-3.3-11.4l29.4-5.55c-1.05 4.5-1.95 10.35-2.7 17.4-.75 7.2-1.05 14.7-1.05 22.65v119.85zm36.45-1.5c4.35 7.35 10.2 15.75 17.25 25.05v.45h-32.1c.45-4.95-1.2-10.8-5.1-17.55l-16.35-28.65 19.2-26.4c1.65-2.25 2.85-4.35 3.6-6.3.6-1.8 1.05-3.9 1.2-6.45h28.65v.6c-3.45 2.7-6.45 5.55-9.3 8.7-2.85 3.15-6.15 7.2-9.75 12.15l-10.95 14.85 13.65 23.55z" fill-rule="nonzero"/><path d="M308.498 238.994c-5.7 0-10.5-1.35-14.25-4.05-3.9-2.7-6.75-6.45-8.55-11.4v-47.25c0-4.65-.3-8.7-.9-12.3-.75-3.6-1.8-7.5-3.45-11.55h30.15c-1.65 4.05-2.7 7.8-3.45 11.4-.75 3.6-1.05 7.8-1.05 12.45v28.2c0 5.4 1.05 9.3 3.3 11.7 2.25 2.55 5.55 3.75 10.2 3.75 2.4 0 4.8-.3 7.05-.9 2.25-.6 4.95-1.65 7.8-3.15v-39.6c0-4.65-.3-8.7-.9-12.3-.75-3.6-1.8-7.5-3.45-11.55h30c-1.65 4.05-2.7 7.95-3.3 11.55-.75 3.6-1.05 7.65-1.05 12.3v37.5c0 4.65.3 8.7 1.05 12.3.6 3.75 1.65 7.65 3.3 11.7h-26.85c.75-3.45 1.2-9.15 1.2-16.95l-11.55 15c-4.35 2.1-9.45 3.15-15.3 3.15zM367.898 237.794c1.65-4.05 2.7-7.95 3.45-11.7.6-3.6.9-7.65.9-12.3v-96.9c0-6.75-.3-12-1.05-16.05-.75-4.05-1.8-7.8-3.3-11.4l29.4-5.55c-1.05 4.5-1.95 10.35-2.7 17.4-.75 7.2-1.05 14.7-1.05 22.65v89.85c0 4.65.3 8.7 1.05 12.3.6 3.75 1.65 7.65 3.3 11.7h-30zM467.498 219.494l-9.45 17.7c-3.45 1.05-7.95 1.65-13.2 1.65-7.65 0-14.85-1.5-21.3-4.5-6.45-3-11.7-7.65-15.6-14.1-4.05-6.3-6-14.25-6-23.7 0-8.55 1.8-16.35 5.55-23.25 3.75-6.9 9-12.3 16.05-16.35 6.9-3.9 15-5.85 24.3-5.85 6.15 0 12.15.75 18.15 2.1l-4.05 21.15-.45.15c-5.4-5.1-11.4-7.65-18-7.65-4.95 0-9.15 1.65-12.6 4.95-3.45 3.3-5.7 8.25-6.6 14.7h35.4l-2.85 15h-31.8c1.5 6.6 4.65 11.7 9.3 15.3 4.5 3.75 10.2 5.55 16.65 5.55 2.85 0 5.4-.3 7.95-.75s5.25-1.2 8.25-2.4l.3.3zM468.548 237.794c1.65-4.05 2.7-7.95 3.45-11.7.6-3.6.9-7.65.9-12.3v-96.9c0-6.75-.3-12-1.05-16.05-.75-4.05-1.8-7.8-3.3-11.4l29.4-5.55c-1.05 4.5-1.95 10.35-2.7 17.4-.75 7.2-1.05 14.7-1.05 22.65v89.85c0 4.65.3 8.7 1.05 12.3.6 3.75 1.65 7.65 3.3 11.7h-30zM568.148 219.494l-9.45 17.7c-3.45 1.05-7.95 1.65-13.2 1.65-7.65 0-14.85-1.5-21.3-4.5-6.45-3-11.7-7.65-15.6-14.1-4.05-6.3-6-14.25-6-23.7 0-8.55 1.8-16.35 5.55-23.25 3.75-6.9 9-12.3 16.05-16.35 6.9-3.9 15-5.85 24.3-5.85 6.15 0 12.15.75 18.15 2.1l-4.05 21.15-.45.15c-5.4-5.1-11.4-7.65-18-7.65-4.95 0-9.15 1.65-12.6 4.95-3.45 3.3-5.7 8.25-6.6 14.7h35.4l-2.85 15h-31.8c1.5 6.6 4.65 11.7 9.3 15.3 4.5 3.75 10.2 5.55 16.65 5.55 2.85 0 5.4-.3 7.95-.75s5.25-1.2 8.25-2.4l.3.3z" fill-rule="nonzero"/></svg>