<svg viewBox="0 0 600 300" xmlns="http://www.w3.org/2000/svg" fill-rule="evenodd" clip-rule="evenodd" stroke-linejoin="round" stroke-miterlimit="2"><path d="M64.6 182c1.1-2.7 1.8-5.3 2.3-7.8.4-2.4.6-5.1.6-8.2v-18.5c0-7.3-3.2-10.9-9.6-10.9-2.5 0-5.2.9-7.9 2.7.1.6.1 1.6.1 2.9V166c0 3.1.2 5.8.7 8.2.4 2.5 1.1 5.1 2.2 7.8H32.9c1.1-2.7 1.8-5.3 2.3-7.7.5-2.4.7-5.2.7-8.3v-18.3c0-3.7-.8-6.5-2.3-8.3-1.6-1.7-3.8-2.6-6.6-2.6-2.7 0-5.6 1-8.7 3V166c0 3.1.2 5.8.7 8.2.4 2.5 1.1 5.1 2.2 7.8h-20c1.1-2.7 1.8-5.3 2.3-7.8.4-2.4.6-5.1.6-8.2v-25.5c0-2.9-.2-5.6-.5-7.9-.4-2.3-1-4.8-1.9-7.5h17.2c-.4 2.3-.6 4.7-.6 7.4v4l3-5.2c2.7-4.7 7-7.1 13.1-7.1 3.8 0 7.1 1 9.8 3 2.7 2.1 4.4 5.1 5.3 9.2l3-5.2c2.7-4.7 7-7 13-7 4.8 0 8.7 1.5 11.7 4.5s4.5 7.5 4.5 13.4V166c0 3.1.2 5.8.7 8.2.4 2.5 1.1 5.1 2.2 7.8h-20zM108.7 124.2c6.5 0 11.5 1.6 14.8 4.7 3.3 3.1 5 7.6 5 13.4V166c0 3.3.2 6.2.7 8.5.5 2.3 1.3 4.8 2.5 7.5h-17.4v-6.5c-3 1.7-6 4-9 6.7-.3.1-1 .1-2 .1-5.3 0-9.5-1.3-12.5-3.8s-4.5-6-4.5-10.4c0-3.2 1-6 3.1-8.4 2-2.4 5.6-4.8 10.9-7.3 4.2-2 8.9-4 14-6.1V145c0-3.1-.8-5.4-2.5-7.1-1.7-1.6-4.1-2.4-7-2.4-4.5 0-9.1 1.4-13.7 4.3l-.2-.2 4.2-13.1c3.9-1.5 8.5-2.3 13.6-2.3zm-6 32.7c-.9 2.2-1.4 4.4-1.4 6.7 0 3 .8 5.2 2.5 6.6 1.6 1.5 4.2 2.2 7.8 2.2 1.1 0 2-.1 2.7-.3v-15.2h-11.6zM153.8 125.1h15.1v9.2h-15.1v30.1c0 2.5.6 4.2 1.7 5.2 1.1 1.1 3 1.6 5.5 1.6 2.9 0 6-.5 9.2-1.5l.2.2-7.9 11.7c-2.9.7-5.7 1-8.4 1-5.1 0-8.8-1.1-11-3.3-2.3-2.2-3.5-5.8-3.5-10.8v-34.2h-7v-.4l20.8-22h.4v13.2zM171.9 182c1.1-2.7 1.8-5.3 2.3-7.8.4-2.4.6-5.1.6-8.2V91.4c0-4.5-.2-8-.7-10.7-.5-2.7-1.2-5.2-2.2-7.6l19.6-3.7c-.7 3-1.3 6.9-1.8 11.6-.5 4.8-.7 9.8-.7 15.1v40.4c3.6-4.8 6.7-8.1 9.2-9.8 2.5-1.7 5.6-2.5 9.1-2.5 4.6 0 8.4 1.5 11.3 4.6 2.9 3.1 4.3 7.6 4.3 13.7V166c0 3.1.2 5.8.7 8.2.4 2.5 1.1 5.1 2.2 7.8h-20.1c1.1-2.7 1.8-5.3 2.3-7.7.5-2.4.7-5.2.7-8.3v-17.5c0-3.9-.9-6.9-2.6-8.8-1.7-1.9-4.2-2.8-7.3-2.8-1.7 0-3.3.2-4.8.7-1.5.5-3.2 1.2-5 2.3V166c0 3.1.2 5.8.7 8.2.4 2.5 1.1 5.1 2.2 7.8h-20zM252.1 162.1c-1 6.3-2.9 12.2-5.7 17.9-2.9 5.8-7 12.6-12.5 20.6h-9.7c3.4-6.8 5.8-12.6 7.2-17.5 1.3-4.9 2-9.2 2-12.9 0-2.8-.4-5.5-1.3-8.1h20zM291.4 182.7c-2.7 0-5.1-.2-7.4-.5-2.3-.3-4.8-.9-7.5-1.6l.8-16.8h.4c2.2 3.8 4.2 6.4 6.1 7.9 1.9 1.5 4.1 2.2 6.8 2.2 2.1 0 3.7-.5 4.8-1.6 1.1-1 1.6-2.4 1.6-4.3s-.6-3.6-1.7-5.1c-1.1-1.4-3.4-3.2-6.9-5.5-3.7-2.4-6.3-4.9-7.8-7.4s-2.3-5.4-2.3-8.8c0-3.2.8-6.1 2.5-8.7 1.6-2.6 3.9-4.6 6.9-6.1 2.9-1.5 6.3-2.2 10.2-2.2 4.2 0 8.1.6 11.8 1.7v11.6h-.4c-2.1-1.7-3.9-2.9-5.5-3.7-1.6-.7-3.3-1-5-1-2 0-3.5.5-4.6 1.4-1.1 1-1.6 2.3-1.6 4 0 1.7.6 3.3 1.9 4.8 1.2 1.5 3.3 3.3 6.3 5.2 3.8 2.4 6.5 4.9 8.2 7.4 1.7 2.5 2.5 5.5 2.5 9 0 5.8-1.8 10.3-5.5 13.4-3.7 3.1-8.6 4.7-14.6 4.7zM315.4 182c1.1-2.7 1.8-5.3 2.3-7.8.4-2.4.6-5.1.6-8.2V91.4c0-4.5-.2-8-.7-10.7-.5-2.7-1.2-5.2-2.2-7.6l19.6-3.7c-.7 3-1.3 6.9-1.8 11.6-.5 4.8-.7 9.8-.7 15.1v40.4c3.6-4.8 6.7-8.1 9.2-9.8 2.5-1.7 5.6-2.5 9.1-2.5 4.6 0 8.4 1.5 11.3 4.6 2.9 3.1 4.3 7.6 4.3 13.7V166c0 3.1.2 5.8.7 8.2.4 2.5 1.1 5.1 2.2 7.8h-20.1c1.1-2.7 1.8-5.3 2.3-7.7.5-2.4.7-5.2.7-8.3v-17.5c0-3.9-.9-6.9-2.6-8.8-1.7-1.9-4.2-2.8-7.3-2.8-1.7 0-3.3.2-4.8.7-1.5.5-3.2 1.2-5 2.3V166c0 3.1.2 5.8.7 8.2.4 2.5 1.1 5.1 2.2 7.8h-20zM437.6 182c1.1-2.7 1.8-5.3 2.3-7.8.4-2.4.6-5.1.6-8.2v-18.5c0-7.3-3.2-10.9-9.6-10.9-2.5 0-5.2.9-7.9 2.7.1.6.1 1.6.1 2.9V166c0 3.1.2 5.8.7 8.2.4 2.5 1.1 5.1 2.2 7.8h-20.1c1.1-2.7 1.8-5.3 2.3-7.7.5-2.4.7-5.2.7-8.3v-18.3c0-3.7-.8-6.5-2.3-8.3-1.6-1.7-3.8-2.6-6.6-2.6-2.7 0-5.6 1-8.7 3V166c0 3.1.2 5.8.7 8.2.4 2.5 1.1 5.1 2.2 7.8h-20c1.1-2.7 1.8-5.3 2.3-7.8.4-2.4.6-5.1.6-8.2v-25.5c0-2.9-.2-5.6-.5-7.9-.4-2.3-1-4.8-1.9-7.5h17.2c-.4 2.3-.6 4.7-.6 7.4v4l3-5.2c2.7-4.7 7-7.1 13.1-7.1 3.8 0 7.1 1 9.8 3 2.7 2.1 4.4 5.1 5.3 9.2l3-5.2c2.7-4.7 7-7 13-7 4.8 0 8.7 1.5 11.7 4.5s4.5 7.5 4.5 13.4V166c0 3.1.2 5.8.7 8.2.4 2.5 1.1 5.1 2.2 7.8h-20zM481.7 124.2c6.5 0 11.5 1.6 14.8 4.7 3.3 3.1 5 7.6 5 13.4V166c0 3.3.2 6.2.7 8.5.5 2.3 1.3 4.8 2.5 7.5h-17.4v-6.5c-3 1.7-6 4-9 6.7-.3.1-1 .1-2 .1-5.3 0-9.5-1.3-12.5-3.8s-4.5-6-4.5-10.4c0-3.2 1-6 3.1-8.4 2-2.4 5.6-4.8 10.9-7.3 4.2-2 8.9-4 14-6.1V145c0-3.1-.8-5.4-2.5-7.1-1.7-1.6-4.1-2.4-7-2.4-4.5 0-9.1 1.4-13.7 4.3l-.2-.2 4.2-13.1c3.9-1.5 8.5-2.3 13.6-2.3zm-6 32.7c-.9 2.2-1.4 4.4-1.4 6.7 0 3 .8 5.2 2.5 6.6 1.6 1.5 4.2 2.2 7.8 2.2 1.1 0 2-.1 2.7-.3v-15.2h-11.6zM526.8 125.1h15.1v9.2h-15.1v60.1c0 2.5.6 4.2 1.7 5.2 1.1 1.1 3 1.6 5.5 1.6 2.9 0 6-.5 9.2-1.5l.2.2-7.9 11.7c-2.9.7-5.7 1-8.4 1-5.1 0-8.8-1.1-11-3.3-2.3-2.2-3.5-5.8-3.5-10.8v-64.2h-7v-.4l20.8-22h.4v13.2zM544.9 182c1.1-2.7 1.8-5.3 2.3-7.8.4-2.4.6-5.1.6-8.2V91.4c0-4.5-.2-8-.7-10.7-.5-2.7-1.2-5.2-2.2-7.6l19.6-3.7c-.7 3-1.3 6.9-1.8 11.6-.5 4.8-.7 9.8-.7 15.1v40.4c3.6-4.8 6.7-8.1 9.2-9.8 2.5-1.7 5.6-2.5 9.1-2.5 4.6 0 8.4 1.5 11.3 4.6 2.9 3.1 4.3 7.6 4.3 13.7V166c0 3.1.2 5.8.7 8.2.4 2.5 1.1 5.1 2.2 7.8h-20.1c1.1-2.7 1.8-5.3 2.3-7.7.5-2.4.7-5.2.7-8.3v-17.5c0-3.9-.9-6.9-2.6-8.8-1.7-1.9-4.2-2.8-7.3-2.8-1.7 0-3.3.2-4.8.7-1.5.5-3.2 1.2-5 2.3V166c0 3.1.2 5.8.7 8.2.4 2.5 1.1 5.1 2.2 7.8h-20z" fill-rule="nonzero"/></svg>